<svg id="svg-source" height="0" version="1.1" 
  xmlns="http://www.w3.org/2000/svg" style="position:absolute; margin-left: -100%" 
  xmlns:xlink="http://www.w3.org/1999/xlink">
  <g id="ebay" data-iconmelon="Flat Social Icons Multicolor:3eec64a3c7b615b752188e19488d5830">
    <g>
      <path fill="#E83D41" d="M16,32c8.837,0,16-7.164,16-16S24.837,0,16,0C7.162,0,0,7.164,0,16S7.162,32,16,32"></path>
      <g>
        <g>
          <g>
            <path fill="#FFFFFF" d="M8.509,13.731c-2.534-0.001-2.632,1.972-2.619,2.483c0,0-0.124,2.307,2.558,2.307
					c2.304,0,2.417-1.447,2.417-1.447l-1.06,0.002c0,0-0.207,0.797-1.354,0.775c-1.475-0.027-1.531-1.455-1.531-1.455h4.084
					C11.004,16.396,11.313,13.731,8.509,13.731z M6.954,15.697c0,0,0.072-1.291,1.53-1.292c1.451,0,1.451,1.292,1.451,1.292H6.954z"></path>
          </g>
        </g>
        <g>
          <g>
            <path fill="#FFFFFF" d="M13.84,13.731c-1.273-0.008-1.822,0.754-1.822,0.754v-2.548h-1.021l0.018,5.385
					c0,0-0.006,0.628-0.045,1.042h0.992l0.043-0.604c0,0,0.463,0.762,1.814,0.762c1.353,0,2.42-0.833,2.449-2.377
					C16.296,14.6,15.114,13.738,13.84,13.731z M13.606,17.832c-1.609,0.021-1.583-1.706-1.583-1.706s-0.059-1.662,1.58-1.704
					c1.639-0.043,1.585,1.74,1.585,1.74S15.215,17.812,13.606,17.832z"></path>
          </g>
        </g>
        <g>
          <g>
            <path fill="#FFFFFF" d="M20.986,17.302c0.002-0.697,0.022-1.319,0-1.758c-0.027-0.509,0.021-1.736-2.178-1.827
					c0,0-2.109-0.192-2.328,1.377h1.078c0,0,0.084-0.719,1.179-0.698c1.035,0.02,1.224,0.527,1.219,1.152
					c0,0-0.888,0.003-1.184,0.004c-0.534,0.003-2.402,0.062-2.577,1.2c-0.207,1.353,1.001,1.774,1.945,1.77
					c0.945-0.006,1.484-0.289,1.885-0.796l0.043,0.63l0.939-0.005C21.008,18.351,20.983,17.998,20.986,17.302z M18.316,17.87
					c0,0-1.023,0.001-1.083-0.817c-0.064-0.872,1.575-0.82,1.575-0.82l1.157-0.001C19.966,16.231,20.153,17.894,18.316,17.87z"></path>
          </g>
        </g>
        <polygon fill="#FFFFFF" points="20.428,13.901 21.612,13.901 23.346,17.357 25.082,13.901 26.153,13.901 23.018,20.062 
			21.872,20.062 22.779,18.351 		"></polygon>
      </g>
    </g>
  </g>
  <g id="b" data-iconmelon="Flat Social Icons Multicolor:85396353d89aa8e3d54b28ffcf8a040f">
    <g>
      <path fill="#E52620" d="M16,32c8.838,0,16-7.164,16-16S24.838,0,16,0S0,7.164,0,16S7.162,32,16,32"></path>
      <path fill="#FFFFFF" d="M17.757,11.527c3.402,0,6.223,2.821,6.223,6.223c0,3.388-2.834,6.222-6.223,6.222h-3.531
		C10.842,23.972,8,21.135,8,17.75V9.444C8,8.655,8.654,8,9.444,8c0.787,0,1.443,0.657,1.443,1.444c0,2.768,0.004,5.537,0.004,8.306
		c0,1.822,1.512,3.334,3.334,3.334h3.531c1.815,0,3.335-1.52,3.335-3.334c0-1.823-1.513-3.335-3.335-3.335h-3.809
		c-0.79,0-1.444-0.654-1.444-1.444c0-0.787,0.657-1.444,1.444-1.444H17.757L17.757,11.527z"></path>
    </g>
  </g>
  <g id="google-plus" data-iconmelon="Flat Social Icons Multicolor:a6e5a23dc8d87c11847618ef0ba8a85e">
    <g>
      <path fill="#C31718" d="M16,32c8.836,0,16-7.164,16-16S24.837,0,16,0S0,7.164,0,16S7.164,32,16,32"></path>
      <path fill="#FFFFFF" d="M13.354,23.165c-1.903,0-3.276-1.203-3.276-2.648c0-1.418,1.705-2.599,3.606-2.577
		c0.443,0.004,0.857,0.076,1.233,0.197c1.032,0.719,1.772,1.124,1.981,1.942c0.04,0.166,0.061,0.336,0.061,0.511
		C16.959,22.036,16.027,23.165,13.354,23.165 M13.853,14.685c-1.276-0.038-2.49-1.428-2.71-3.104
		c-0.221-1.678,0.636-2.96,1.912-2.922s2.49,1.383,2.71,3.06C15.985,13.395,15.129,14.723,13.853,14.685 M16.5,17.168
		c-0.448-0.317-1.304-1.088-1.304-1.541c0-0.533,0.151-0.794,0.951-1.418c0.819-0.641,1.4-1.541,1.4-2.588
		c0-1.246-0.556-2.461-1.598-2.862h1.571l1.109-0.801h-4.956c-2.221,0-4.312,1.683-4.312,3.632c0,1.992,1.514,3.6,3.774,3.6
		c0.157,0,0.31-0.003,0.459-0.013c-0.146,0.279-0.252,0.598-0.252,0.925c0,0.554,0.298,1.003,0.675,1.369
		c-0.285,0-0.56,0.008-0.859,0.008c-2.751,0-4.87,1.753-4.87,3.57c0,1.79,2.322,2.909,5.073,2.909c3.137,0,4.87-1.78,4.87-3.57
		C18.233,18.953,17.81,18.093,16.5,17.168 M23.709,14.831H21.78v-1.929h-1.552v1.929h-1.929v1.553h1.929v1.93h1.552v-1.93h1.929
		V14.831z"></path>
    </g>
  </g>
  <g id="windows" data-iconmelon="Flat Social Icons Multicolor:f1227b1c7d4a289ce969802ab8c0ce6a">
    <g>
      <path fill="#2BAAE2" d="M16,32c8.837,0,16-7.164,16-16S24.837,0,16,0C7.162,0,0,7.164,0,16S7.162,32,16,32"></path>
      <path id="path13" fill="#FFFFFF" d="M8.592,11.055
		l6.05-0.824l0.003,5.836l-6.047,0.035L8.592,11.055z M14.64,16.739l0.005,5.841l-6.047-0.832l0-5.049L14.64,16.739z M15.373,10.123
		l8.022-1.171v7.04l-8.022,0.064V10.123z M23.397,16.794l-0.002,7.009l-8.022-1.133l-0.011-5.889L23.397,16.794z"></path>
    </g>
  </g>
  <g id="soundcloud" data-iconmelon="Flat Social Icons Multicolor:0e6f05ec4bb026bd4b662565a6442e99">
    <g>
      <path fill="#E7411F" d="M16,32c8.837,0,16-7.164,16-16S24.837,0,16,0C7.162,0,0,7.164,0,16S7.162,32,16,32"></path>
      <path fill="#FFFFFF" d="M8.771,18.593c0.035,0,0.062-0.026,0.067-0.064l0.179-1.405L8.84,15.686
		c-0.006-0.037-0.033-0.064-0.068-0.064c-0.033,0-0.061,0.028-0.066,0.064l-0.156,1.438l0.156,1.405
		C8.711,18.566,8.738,18.593,8.771,18.593z M8.244,17.997L8.244,17.997L8.244,17.997L8.244,17.997z M8.181,18.06
		c0.032,0,0.06-0.025,0.063-0.062l0.14-0.874l-0.14-0.889c-0.004-0.037-0.031-0.062-0.063-0.062c-0.034,0-0.06,0.026-0.063,0.063
		L8,17.123l0.117,0.874C8.121,18.033,8.146,18.06,8.181,18.06z M9.48,15.418c-0.004-0.045-0.038-0.078-0.079-0.078
		c-0.043,0-0.077,0.033-0.08,0.078c0,0.002-0.149,1.705-0.149,1.705l0.149,1.644c0.003,0.045,0.037,0.078,0.08,0.078
		c0.041,0,0.075-0.033,0.079-0.077l0.17-1.645L9.48,15.418z M10.035,18.91c0.049,0,0.089-0.039,0.094-0.092l0,0l0.159-1.695
		l-0.159-1.752c-0.005-0.053-0.045-0.092-0.094-0.092c-0.05,0-0.09,0.039-0.095,0.092L9.8,17.123l0.141,1.695
		C9.945,18.871,9.985,18.91,10.035,18.91z M10.674,18.938c0.057,0,0.103-0.045,0.107-0.105l0,0l0.151-1.709l-0.151-1.625
		c-0.005-0.061-0.051-0.105-0.107-0.105c-0.058,0-0.104,0.046-0.107,0.105l-0.134,1.625l0.134,1.709
		C10.569,18.893,10.616,18.938,10.674,18.938z M11.581,17.125l-0.143-2.645c-0.003-0.067-0.057-0.119-0.121-0.119
		s-0.117,0.052-0.12,0.119l-0.125,2.645l0.125,1.708c0.003,0.066,0.056,0.12,0.12,0.12s0.118-0.054,0.121-0.121v0.001L11.581,17.125
		z M11.967,18.955c0.072,0,0.131-0.059,0.135-0.133v0.001l0.132-1.698l-0.132-3.249c-0.004-0.074-0.062-0.132-0.135-0.132
		s-0.132,0.058-0.135,0.132l-0.117,3.249l0.117,1.697C11.835,18.896,11.895,18.955,11.967,18.955z M12.621,13.459
		c-0.081,0-0.146,0.064-0.148,0.146l-0.109,3.52l0.109,1.681c0.003,0.082,0.067,0.146,0.148,0.146c0.08,0,0.145-0.063,0.148-0.146
		v0.001l0.123-1.681l-0.123-3.52C12.766,13.523,12.701,13.459,12.621,13.459z M13.28,18.955c0.089,0,0.159-0.07,0.162-0.16v0.001
		l0.114-1.671l-0.114-3.638c-0.003-0.091-0.073-0.161-0.162-0.161c-0.088,0-0.159,0.07-0.161,0.161l-0.102,3.638l0.102,1.671
		C13.121,18.885,13.192,18.955,13.28,18.955z M13.945,18.955c0.096,0,0.173-0.078,0.175-0.176v0.001l0.104-1.655L14.12,13.58
		c-0.002-0.098-0.079-0.175-0.175-0.175c-0.097,0-0.174,0.077-0.176,0.175l-0.093,3.545l0.093,1.655
		C13.771,18.877,13.849,18.955,13.945,18.955z M14.899,17.127l-0.095-3.418c-0.003-0.105-0.085-0.188-0.19-0.188
		c-0.104,0-0.187,0.082-0.188,0.188l-0.085,3.417l0.085,1.643c0.002,0.104,0.085,0.187,0.188,0.187c0.105,0,0.188-0.082,0.19-0.188
		v0.002L14.899,17.127z M15.29,18.96c0.109,0,0.201-0.091,0.203-0.202v0.001l0.085-1.632l-0.085-4.066
		c-0.002-0.11-0.094-0.201-0.203-0.201c-0.11,0-0.201,0.091-0.203,0.201l-0.077,4.064c0,0.003,0.077,1.634,0.077,1.634
		C15.089,18.869,15.18,18.96,15.29,18.96z M15.961,12.478c-0.117,0-0.215,0.097-0.217,0.216l-0.088,4.434l0.088,1.609
		c0.002,0.116,0.1,0.214,0.217,0.214c0.118,0,0.216-0.098,0.217-0.216v0.002l0.098-1.609l-0.098-4.435
		C16.177,12.574,16.079,12.478,15.961,12.478z M16.577,18.962c0.005,0,5.42,0.002,5.455,0.002c1.087,0,1.968-0.88,1.968-1.968
		c0-1.087-0.881-1.968-1.968-1.968c-0.271,0-0.527,0.055-0.762,0.152c-0.157-1.773-1.644-3.164-3.458-3.164
		c-0.443,0-0.877,0.087-1.26,0.235c-0.147,0.057-0.188,0.115-0.189,0.231v6.245C16.365,18.849,16.459,18.949,16.577,18.962z"></path>
    </g>
  </g>
  <g id="skype" data-iconmelon="Flat Social Icons Multicolor:c0bd586ec2affb59190479fa5dd2b551">
    <g>
      <path fill="#209DD9" d="M16,32c8.837,0,16-7.164,16-16S24.837,0,16,0C7.162,0,0,7.164,0,16S7.162,32,16,32"></path>
      <path fill="#FFFFFF" d="M23.541,17.724c0.115-0.529,0.176-1.076,0.176-1.64c0-4.213-3.416-7.63-7.631-7.63
		c-0.445,0-0.881,0.038-1.306,0.112c-0.682-0.431-1.488-0.681-2.354-0.681C9.981,7.886,8,9.868,8,12.312
		c0,0.816,0.223,1.581,0.608,2.238c-0.102,0.496-0.154,1.01-0.154,1.533c0,4.217,3.416,7.633,7.632,7.633
		c0.478,0,0.943-0.044,1.396-0.129c0.624,0.336,1.336,0.526,2.093,0.526c2.444,0,4.425-1.981,4.425-4.427
		C24,18.982,23.835,18.315,23.541,17.724z M20,19.731c-0.353,0.5-0.875,0.896-1.551,1.177c-0.669,0.279-1.472,0.42-2.385,0.42
		c-1.096,0-2.015-0.192-2.732-0.573c-0.513-0.277-0.936-0.651-1.257-1.115c-0.323-0.466-0.487-0.931-0.487-1.38
		c0-0.278,0.107-0.521,0.317-0.719c0.209-0.198,0.477-0.297,0.797-0.297c0.263,0,0.488,0.079,0.672,0.233
		c0.176,0.149,0.325,0.37,0.448,0.653c0.135,0.311,0.281,0.572,0.438,0.777c0.15,0.199,0.366,0.366,0.64,0.496
		c0.277,0.131,0.65,0.197,1.108,0.197c0.632,0,1.148-0.135,1.537-0.4c0.381-0.26,0.565-0.572,0.565-0.952
		c0-0.302-0.097-0.538-0.295-0.724c-0.208-0.195-0.481-0.346-0.813-0.45c-0.348-0.106-0.818-0.225-1.4-0.348
		c-0.792-0.169-1.465-0.369-2-0.597c-0.548-0.233-0.988-0.557-1.312-0.959c-0.327-0.412-0.494-0.925-0.494-1.531
		c0-0.575,0.175-1.096,0.519-1.543c0.342-0.445,0.84-0.792,1.481-1.028c0.633-0.234,1.387-0.354,2.239-0.354
		c0.682,0,1.28,0.08,1.78,0.235c0.503,0.156,0.928,0.367,1.261,0.628c0.336,0.262,0.586,0.542,0.742,0.833
		c0.158,0.295,0.238,0.588,0.238,0.87c0,0.274-0.104,0.521-0.312,0.737c-0.209,0.218-0.474,0.328-0.784,0.328
		c-0.283,0-0.503-0.07-0.657-0.205c-0.142-0.127-0.291-0.323-0.455-0.606c-0.19-0.362-0.421-0.646-0.685-0.847
		c-0.257-0.197-0.686-0.294-1.275-0.294c-0.546,0-0.992,0.108-1.321,0.325c-0.319,0.209-0.474,0.448-0.474,0.731
		c0,0.174,0.05,0.319,0.152,0.444c0.108,0.134,0.262,0.248,0.455,0.346c0.201,0.101,0.407,0.182,0.614,0.238
		c0.211,0.059,0.568,0.146,1.056,0.259c0.618,0.133,1.187,0.281,1.688,0.441c0.509,0.163,0.946,0.362,1.306,0.597
		c0.365,0.237,0.655,0.542,0.86,0.908c0.206,0.366,0.31,0.818,0.31,1.345C20.533,18.658,20.354,19.232,20,19.731z"></path>
    </g>
  </g>
  <g id="android" data-iconmelon="Flat Social Icons Multicolor:925fd3732472c572fb004e6a17346d3e">
    <g>
      <path fill="#9AC43B" d="M16,32c8.837,0,16-7.164,16-16S24.837,0,16,0C7.162,0,0,7.164,0,16S7.162,32,16,32"></path>
      <path fill="#FFFFFF" d="M18.39,9.393l0.174-0.262l0.173-0.258l0.386-0.579c0.048-0.071,0.028-0.167-0.044-0.215
		c-0.07-0.048-0.167-0.028-0.214,0.043L18.45,8.743l-0.175,0.261L18.1,9.269c-0.56-0.217-1.184-0.339-1.842-0.339
		s-1.283,0.122-1.843,0.339l-0.176-0.265l-0.174-0.261L13.65,8.122c-0.047-0.07-0.143-0.091-0.215-0.043
		c-0.07,0.048-0.09,0.144-0.043,0.215l0.386,0.579l0.173,0.258l0.175,0.262c-1.314,0.612-2.204,1.771-2.204,3.1h8.671
		C20.593,11.164,19.703,10.005,18.39,9.393z M14.399,11.253c-0.257,0-0.465-0.208-0.465-0.465c0-0.256,0.208-0.464,0.465-0.464
		s0.464,0.208,0.464,0.464C14.863,11.045,14.656,11.253,14.399,11.253z M18.115,11.253c-0.257,0-0.465-0.208-0.465-0.465
		c0-0.256,0.208-0.464,0.465-0.464s0.465,0.208,0.465,0.464C18.58,11.045,18.372,11.253,18.115,11.253z"></path>
      <path fill="#FFFFFF" d="M11.989,13.111h-0.067v0.771v0.631v5.41c0,0.541,0.44,0.98,0.981,0.98h0.707
		c-0.023,0.082-0.036,0.169-0.036,0.259v0.052v0.309v1.6c0,0.514,0.416,0.93,0.928,0.93c0.514,0,0.931-0.416,0.931-0.93v-1.6v-0.309
		v-0.052c0-0.09-0.015-0.177-0.038-0.259h1.726c-0.024,0.082-0.037,0.169-0.037,0.259v0.052v0.309v1.6
		c0,0.514,0.416,0.93,0.929,0.93c0.514,0,0.93-0.416,0.93-0.93v-1.6v-0.309v-0.052c0-0.09-0.014-0.177-0.037-0.259h0.708
		c0.541,0,0.98-0.439,0.98-0.98v-5.41v-0.631v-0.771h-0.067H11.989z"></path>
      <path fill="#FFFFFF" d="M10.374,13.111c-0.514,0-0.93,0.416-0.93,0.928v3.975c0,0.513,0.416,0.93,0.93,0.93
		c0.513,0,0.929-0.417,0.929-0.93v-3.975C11.303,13.527,10.887,13.111,10.374,13.111z"></path>
      <path fill="#FFFFFF" d="M22.142,13.111c-0.514,0-0.93,0.416-0.93,0.928v3.975c0,0.513,0.416,0.93,0.93,0.93
		c0.513,0,0.929-0.417,0.929-0.93v-3.975C23.07,13.527,22.654,13.111,22.142,13.111z"></path>
    </g>
  </g>
  <g id="vimeo" data-iconmelon="Flat Social Icons Multicolor:bbfa4d4e960e1837b003551ab7d26d4a">
    <g>
      <path fill="#24ACE4" d="M16,31.999c8.836,0,16-7.163,16-15.999S24.836,0.001,16,0.001C7.165,0.001,0,7.164,0,16
		S7.165,31.999,16,31.999"></path>
      <path fill="#FFFFFF" d="M23.99,12.66c-0.07,1.555-1.159,3.682-3.26,6.381c-2.175,2.822-4.018,4.232-5.524,4.232
		c-0.932,0-1.721-0.858-2.365-2.58c-0.432-1.579-0.861-3.158-1.292-4.734c-0.48-1.721-0.994-2.582-1.542-2.582
		c-0.12,0-0.537,0.251-1.255,0.755L8,13.161c0.788-0.69,1.565-1.385,2.332-2.077c1.05-0.91,1.839-1.386,2.366-1.436
		c1.241-0.121,2.007,0.729,2.296,2.545c0.308,1.961,0.524,3.18,0.644,3.659c0.359,1.625,0.752,2.436,1.183,2.436
		c0.333,0,0.836-0.524,1.505-1.575c0.67-1.053,1.027-1.853,1.076-2.404c0.096-0.908-0.262-1.36-1.076-1.36
		c-0.382,0-0.777,0.081-1.183,0.251c0.79-2.559,2.296-3.802,4.519-3.729C23.31,9.517,24.087,10.582,23.99,12.66z"></path>
    </g>
  </g>
  <g id="paypal" data-iconmelon="Flat Social Icons Multicolor:e73404e39e1955614167e7a16d158128">
    <g>
      <path fill="#0E447E" d="M16,32c8.837,0,16-7.164,16-16S24.837,0,16,0C7.162,0,0,7.164,0,16S7.162,32,16,32"></path>
      <path fill="#FFFFFF" d="M23.995,11.936c-0.037-0.672-0.215-1.25-0.491-1.74c-0.801-1.426-2.437-2.098-3.926-2.098h-8.022
		L8.001,23.902h4.709l1.15-5.23h3.368c0.037,0,0.077-0.006,0.118-0.006c1.911-0.031,3.629-0.742,4.847-2.011
		c0.793-0.833,1.379-1.897,1.664-3.175C23.976,12.92,24.018,12.403,23.995,11.936z M19.436,13.48
		c-0.128,0.522-0.426,0.998-0.82,1.374c-0.142,0.133-0.301,0.253-0.467,0.357c-0.426,0.267-0.916,0.431-1.407,0.431h-2.208
		l0.935-4.008l0.077-0.317h2.305c0.398,0,0.746,0.119,1.026,0.317C19.399,12.014,19.656,12.692,19.436,13.48z"></path>
    </g>
  </g>
  <g id="linkedin" data-iconmelon="Flat Social Icons Multicolor:713a9a6056e571033d961c41f9e5aa34">
    <g>
      <path fill="#0D78B6" d="M16,32c8.838,0,16-7.164,16-16S24.838,0,16,0C7.163,0,0,7.164,0,16S7.163,32,16,32"></path>
      <path fill="#FFFFFF" d="M11.522,22.691H8.403v-9.98h3.119V22.691z M9.883,11.463H9.86c-1.129,0-1.86-0.764-1.86-1.73
		C8,8.748,8.754,8,9.905,8c1.15,0,1.857,0.746,1.88,1.73C11.785,10.697,11.056,11.463,9.883,11.463z M24,22.691h-3.537v-5.164
		c0-1.353-0.552-2.275-1.77-2.275c-0.93,0-1.446,0.623-1.688,1.224c-0.09,0.216-0.075,0.515-0.075,0.816v5.399h-3.504
		c0,0,0.046-9.148,0-9.98h3.504v1.566c0.207-0.685,1.326-1.662,3.112-1.662c2.216,0,3.958,1.436,3.958,4.527V22.691z"></path>
    </g>
  </g>
  <g id="deviantart" data-iconmelon="Flat Social Icons Multicolor:0855c00783ce3807f124843e05951f4b">
    <g>
      <path fill="#4D5F52" d="M16,32c8.837,0,16-7.164,16-16S24.837,0,16,0C7.162,0,0,7.164,0,16S7.162,32,16,32"></path>
      <path fill="#FFFFFF" d="M13.797,14.209c3.623-1.042,6.647,1.086,6.647,1.086l-2.493,0.674l-0.718-1.334
		c-0.675-0.125-1.445-0.164-2.264-0.025l1.698,3.448L24,15.945c0,0-2.66-4.177-10.593-2.827c-0.046,0.008-0.087,0.02-0.133,0.026
		l-0.771-1.563L10.22,11.84l0.932,1.904c-4.814,1.987-2.681,6.675-2.681,6.675l7.344-2.114L13.797,14.209z M10.458,17.99
		c0,0-0.708-1.562,1.351-2.9l1.096,2.241L10.458,17.99z"></path>
    </g>
  </g>
  <g id="pinterest" data-iconmelon="Flat Social Icons Multicolor:cfadd1db3e072c9893b713a85be9d5d2">
    <g>
      <path fill="#CD3434" d="M16,32c8.837,0,16-7.163,16-16c0-8.836-7.163-16-16-16C7.164,0,0,7.164,0,16C0,24.837,7.164,32,16,32"></path>
      <path fill="#FFFFFF" d="M16,7.958c-4.418,0-8,3.581-8,8c0,3.275,1.97,6.09,4.79,7.327c-0.023-0.559-0.004-1.229,0.139-1.838
		c0.153-0.648,1.029-4.358,1.029-4.358s-0.255-0.511-0.255-1.266c0-1.187,0.688-2.071,1.543-2.071c0.728,0,1.079,0.547,1.079,1.201
		c0,0.731-0.467,1.826-0.707,2.838c-0.201,0.85,0.425,1.542,1.262,1.542c1.516,0,2.537-1.946,2.537-4.253
		c0-1.754-1.181-3.065-3.328-3.065c-2.427,0-3.938,1.809-3.938,3.83c0,0.697,0.205,1.188,0.527,1.569
		c0.148,0.175,0.168,0.245,0.115,0.446c-0.038,0.146-0.126,0.501-0.163,0.642c-0.053,0.203-0.217,0.275-0.4,0.201
		c-1.118-0.458-1.639-1.682-1.639-3.057c0-2.272,1.916-4.999,5.717-4.999c3.055,0,5.065,2.212,5.065,4.584
		c0,3.139-1.745,5.482-4.317,5.482c-0.863,0-1.676-0.467-1.954-0.997c0,0-0.465,1.843-0.563,2.199
		c-0.169,0.615-0.502,1.233-0.805,1.713c0.719,0.213,1.479,0.328,2.267,0.328c4.418,0,8-3.581,8-7.999
		C24,11.539,20.418,7.958,16,7.958"></path>
    </g>
  </g>
  <g id="instagram" data-iconmelon="Flat Social Icons Multicolor:9e23392433d61906b4e04b90fb81dd65">
    <g>
      <path fill="#35679A" d="M16,32c8.837,0,16-7.164,16-16S24.837,0,16,0C7.162,0,0,7.164,0,16S7.162,32,16,32"></path>
      <path fill="#FFFFFF" d="M20.909,8h-9.815c-1.705,0-3.092,1.387-3.092,3.092v3.265v6.55c0,1.705,1.387,3.092,3.092,3.092h9.815
		c1.705,0,3.093-1.387,3.093-3.092v-6.55v-3.265C24.002,9.387,22.614,8,20.909,8z M21.797,9.845l0.354-0.002v0.353v2.359
		l-2.703,0.009l-0.01-2.712L21.797,9.845z M13.719,14.357c0.512-0.709,1.344-1.174,2.283-1.174s1.771,0.465,2.283,1.174
		c0.334,0.463,0.533,1.029,0.533,1.643c0,1.553-1.264,2.815-2.816,2.815S13.186,17.553,13.186,16
		C13.186,15.386,13.386,14.82,13.719,14.357z M22.443,20.908c0,0.846-0.688,1.533-1.534,1.533h-9.815
		c-0.846,0-1.533-0.687-1.533-1.533v-6.55h2.389c-0.206,0.508-0.322,1.062-0.322,1.643c0,2.413,1.963,4.375,4.375,4.375
		s4.375-1.962,4.375-4.375c0-0.581-0.117-1.135-0.322-1.643h2.389V20.908z"></path>
    </g>
  </g>
  <g id="flickr" data-iconmelon="Flat Social Icons Multicolor:210710e2c808e53cdbc8b6e0a4bd3b35">
    <g>
      <path fill="#FFFFFF" d="M16.001,31.999C24.836,31.999,32,24.836,32,16S24.836,0.001,16.001,0.001C7.164,0.001,0,7.164,0,16
		S7.164,31.999,16.001,31.999"></path>
      <circle fill="#E8328A" cx="20.476" cy="16" r="3.524"></circle>
      <path fill="#2864AE" d="M15.048,16c0,1.945-1.576,3.523-3.525,3.523C9.577,19.523,8,17.945,8,16s1.577-3.523,3.522-3.523
		C13.472,12.477,15.048,14.055,15.048,16z"></path>
    </g>
  </g>
  <g id="google-drive" data-iconmelon="Flat Social Icons Multicolor:b20823bd4a411f2074340873f6a855bf">
    <g>
      <path fill="#343434" d="M16,32c8.837,0,16-7.164,16-16S24.837,0,16,0C7.162,0,0,7.164,0,16S7.162,32,16,32"></path>
      <polygon fill="#527BBD" points="13.627,18.933 13.538,18.933 13.494,19.01 11.327,22.799 11.196,23.028 11.46,23.028 
		21.568,23.028 21.657,23.028 21.701,22.951 23.869,19.162 24,18.933 23.736,18.933 	"></polygon>
      <polygon fill="#FDCF49" points="19.238,17.975 19.283,18.052 19.371,18.052 23.736,18.033 24,18.032 23.869,17.804 18.814,9.05 
		18.77,8.973 18.682,8.973 14.316,8.991 14.053,8.992 14.184,9.22 	"></polygon>
      <polygon fill="#13A962" points="15.607,13.524 15.562,13.447 13.363,9.676 13.231,9.449 13.1,9.677 8.045,18.432 8,18.508 
		8.045,18.584 10.243,22.355 10.376,22.584 10.508,22.355 15.562,13.601 	"></polygon>
    </g>
  </g>
  <g id="dropbox" data-iconmelon="Flat Social Icons Multicolor:c062f436d893fb2fbaf99e7387d9e76e">
    <g>
      <path fill="#2864AE" d="M16,32c8.837,0,16-7.164,16-16c0-8.836-7.163-16-16-16C7.162,0,0,7.164,0,16C0,24.836,7.162,32,16,32"></path>
      <polygon fill="#FFFFFF" points="8,16.843 12.707,19.915 16,17.169 11.254,14.239 	"></polygon>
      <polygon fill="#FFFFFF" points="12.707,8.563 8,11.633 11.254,14.239 16,11.31 	"></polygon>
      <polygon fill="#FFFFFF" points="24,11.633 19.293,8.563 16,11.31 20.746,14.239 	"></polygon>
      <polygon fill="#FFFFFF" points="16,17.169 19.293,19.915 24,16.843 20.746,14.239 	"></polygon>
      <polygon fill="#FFFFFF" points="16.01,17.759 12.707,20.498 11.293,19.576 11.293,20.61 16.01,23.437 20.727,20.61 20.727,19.576 
		19.313,20.498 	"></polygon>
    </g>
  </g>
  <g id="dribbble" data-iconmelon="Flat Social Icons Multicolor:05c9d6d82f0dd178692f2d73b4293da1">
    <g>
      <path fill="#E94190" d="M16,32c8.837,0,16-7.164,16-16c0-8.836-7.163-16-16-16C7.162,0,0,7.164,0,16C0,24.836,7.162,32,16,32"></path>
      <path fill-rule="evenodd" clip-rule="evenodd" fill="#FFFFFF" d="M23.836,14.39c-0.104-0.514-0.262-1.021-0.466-1.504
		c-0.2-0.475-0.448-0.932-0.737-1.359c-0.286-0.423-0.615-0.822-0.977-1.183c-0.361-0.362-0.76-0.691-1.184-0.977
		c-0.427-0.29-0.885-0.538-1.358-0.738c-0.483-0.204-0.99-0.362-1.504-0.466C17.084,8.055,16.542,8,16,8s-1.084,0.055-1.611,0.164
		c-0.515,0.104-1.02,0.262-1.503,0.466c-0.474,0.201-0.932,0.448-1.36,0.738c-0.423,0.286-0.82,0.614-1.183,0.977
		c-0.362,0.361-0.69,0.76-0.976,1.183c-0.289,0.427-0.539,0.884-0.738,1.359c-0.204,0.483-0.361,0.99-0.467,1.504
		C8.055,14.915,8,15.458,8,16c0,0.543,0.055,1.085,0.162,1.612c0.105,0.514,0.263,1.021,0.467,1.503
		c0.199,0.474,0.449,0.933,0.738,1.36c0.285,0.423,0.613,0.821,0.976,1.183c0.362,0.361,0.76,0.689,1.183,0.976
		c0.429,0.289,0.887,0.538,1.36,0.738c0.483,0.205,0.988,0.361,1.503,0.466C14.916,23.946,15.458,24,16,24s1.084-0.055,1.61-0.164
		c0.514-0.105,1.021-0.261,1.504-0.466c0.474-0.2,0.932-0.449,1.358-0.738c0.424-0.286,0.822-0.614,1.184-0.976
		c0.361-0.362,0.69-0.76,0.977-1.183c0.289-0.427,0.537-0.886,0.737-1.36c0.204-0.482,0.361-0.989,0.466-1.503
		C23.945,17.085,24,16.542,24,16C24,15.458,23.945,14.915,23.836,14.39z M22.83,15.932c-0.1-0.021-2.411-0.519-4.76-0.224
		c-0.047-0.117-0.096-0.234-0.146-0.353c-0.143-0.334-0.296-0.666-0.454-0.991c2.697-1.102,3.792-2.686,3.806-2.704
		C22.234,12.824,22.812,14.311,22.83,15.932z M20.513,10.873c-0.018,0.026-0.99,1.508-3.57,2.474
		c-1.167-2.146-2.45-3.851-2.553-3.986c0.517-0.125,1.056-0.193,1.61-0.193C17.729,9.167,19.309,9.812,20.513,10.873z M14.363,9.366
		c0,0.001-0.001,0.001-0.001,0.001s-0.009,0.001-0.021,0.004C14.348,9.37,14.355,9.369,14.363,9.366z M13.084,9.821
		c0.092,0.122,1.355,1.834,2.537,3.937c-3.279,0.872-6.127,0.837-6.308,0.834C9.758,12.476,11.179,10.721,13.084,9.821z M9.168,16
		c0-0.073,0.002-0.144,0.005-0.215c0.12,0.002,3.497,0.079,7.015-0.974c0.195,0.383,0.383,0.772,0.554,1.161
		c-0.091,0.025-0.179,0.052-0.269,0.082c-3.688,1.192-5.557,4.509-5.557,4.509s0.002,0.002,0.002,0.003
		C9.83,19.355,9.168,17.755,9.168,16z M16,22.833c-1.653,0-3.17-0.588-4.353-1.566c0.09,0.073,0.153,0.119,0.153,0.119
		s1.309-2.856,5.361-4.268c0.016-0.006,0.03-0.01,0.045-0.015c0.962,2.498,1.359,4.59,1.46,5.188
		C17.848,22.64,16.946,22.833,16,22.833z M19.817,21.667c-0.069-0.413-0.434-2.417-1.329-4.88c2.204-0.353,4.115,0.252,4.257,0.299
		C22.441,18.988,21.352,20.631,19.817,21.667z"></path>
    </g>
  </g>
  <g id="behance" data-iconmelon="Flat Social Icons Multicolor:4567f7b879f3d3b9be26559f4cbc545d">
    <g>
      <path fill="#010202" d="M16,32c8.837,0,16-7.164,16-16c0-8.836-7.163-16-16-16S0,7.164,0,16C0,24.836,7.163,32,16,32"></path>
      <path fill="#FFFFFF" d="M15.341,11.985c0.301,0.421,0.453,0.923,0.453,1.509c0,0.603-0.151,1.089-0.456,1.456
		c-0.172,0.206-0.423,0.394-0.755,0.563c0.504,0.185,0.885,0.475,1.143,0.873c0.256,0.397,0.385,0.88,0.385,1.449
		c0,0.586-0.146,1.112-0.441,1.577c-0.187,0.308-0.42,0.568-0.7,0.778c-0.315,0.242-0.686,0.407-1.116,0.497
		c-0.43,0.089-0.895,0.133-1.397,0.133H8v-9.888h4.778C13.984,10.949,14.838,11.3,15.341,11.985z M9.972,12.649v2.182h2.404
		c0.428,0,0.777-0.083,1.046-0.246c0.267-0.164,0.402-0.454,0.402-0.868c0-0.461-0.177-0.765-0.531-0.914
		c-0.306-0.103-0.695-0.154-1.168-0.154H9.972z M9.972,16.466v2.637h2.4c0.429,0,0.764-0.058,1.001-0.174
		c0.435-0.216,0.65-0.627,0.65-1.234c0-0.515-0.208-0.868-0.629-1.061c-0.235-0.107-0.565-0.164-0.988-0.167H9.972z M22.088,13.656
		c0.511,0.228,0.931,0.589,1.262,1.082c0.302,0.434,0.496,0.938,0.584,1.511c0.052,0.335,0.073,0.82,0.063,1.452h-5.327
		c0.031,0.733,0.284,1.248,0.766,1.542c0.292,0.184,0.643,0.275,1.054,0.275c0.434,0,0.789-0.111,1.061-0.335
		c0.149-0.121,0.281-0.289,0.394-0.503h1.952c-0.051,0.433-0.289,0.874-0.708,1.323c-0.655,0.71-1.572,1.065-2.75,1.065
		c-0.974,0-1.833-0.299-2.575-0.899c-0.746-0.6-1.116-1.576-1.116-2.926c0-1.268,0.335-2.239,1.006-2.916
		c0.672-0.675,1.543-1.014,2.614-1.014C21.005,13.313,21.578,13.428,22.088,13.656z M19.229,15.308
		c-0.271,0.279-0.44,0.656-0.51,1.132h3.295c-0.035-0.507-0.206-0.892-0.509-1.156c-0.307-0.262-0.685-0.394-1.136-0.394
		C19.88,14.89,19.499,15.029,19.229,15.308z M22.461,11.393h-4.237v1.23h4.237V11.393z"></path>
    </g>
  </g>
  <g id="tumblr" data-iconmelon="Flat Social Icons Multicolor:5161da06d80e8974964e1de0f4a9e602">
    <g>
      <path fill="#36475D" d="M16,31.999c8.837,0,16-7.164,16-16c0-8.835-7.163-15.999-16-15.999S0,7.164,0,16
		C0,24.835,7.163,31.999,16,31.999"></path>
      <path fill="#FFFFFF" d="M16.174,8v4.044h3.796v2.511h-3.796v4.103c0,0.928,0.049,1.523,0.146,1.786
		c0.098,0.265,0.28,0.475,0.55,0.632c0.353,0.212,0.757,0.317,1.213,0.317c0.811,0,1.615-0.264,2.418-0.791v2.525
		c-0.685,0.32-1.303,0.547-1.857,0.676C18.089,23.936,17.49,24,16.846,24c-0.731,0-1.379-0.093-1.939-0.276
		c-0.562-0.187-1.042-0.448-1.438-0.791c-0.396-0.342-0.673-0.707-0.825-1.091c-0.153-0.385-0.229-0.943-0.229-1.675v-5.611h-1.77
		v-2.264c0.63-0.205,1.167-0.498,1.615-0.878c0.448-0.381,0.809-0.839,1.079-1.374C13.608,9.506,13.796,8.825,13.898,8H16.174z"></path>
    </g>
  </g>
  <g id="wordpress" data-iconmelon="Flat Social Icons Multicolor:e422e5c87472063fc956aed59116e395">
    <g>
      <path fill="#343434" d="M16,32c8.837,0,16-7.164,16-16S24.837,0,16,0C7.162,0,0,7.163,0,16S7.162,32,16,32"></path>
      <path fill="#FFFFFF" d="M8,16c0,3.165,1.84,5.903,4.509,7.199L8.693,12.744C8.249,13.739,8,14.84,8,16z M21.402,15.596
		c0-0.989-0.356-1.674-0.66-2.207c-0.405-0.659-0.785-1.216-0.785-1.876c0-0.735,0.556-1.42,1.343-1.42
		c0.034,0,0.068,0.004,0.103,0.007c-1.423-1.304-3.319-2.101-5.402-2.101c-2.796,0-5.254,1.435-6.685,3.607
		c0.188,0.005,0.364,0.01,0.515,0.01c0.837,0,2.132-0.103,2.132-0.103c0.43-0.024,0.481,0.607,0.05,0.66c0,0-0.433,0.05-0.915,0.076
		l2.914,8.665l1.751-5.25l-1.247-3.415c-0.431-0.025-0.839-0.076-0.839-0.076c-0.432-0.026-0.38-0.685,0.051-0.66
		c0,0,1.321,0.103,2.107,0.103c0.836,0,2.133-0.103,2.133-0.103c0.43-0.024,0.481,0.607,0.05,0.66c0,0-0.433,0.05-0.915,0.076
		l2.892,8.599l0.798-2.666C21.198,17.142,21.402,16.282,21.402,15.596z M16.142,16.7l-2.401,6.976
		c0.716,0.211,1.473,0.325,2.26,0.325c0.931,0,1.825-0.161,2.656-0.454c-0.021-0.035-0.042-0.07-0.057-0.109L16.142,16.7z
		 M23.021,12.161c0.036,0.255,0.055,0.528,0.055,0.824c0,0.811-0.152,1.723-0.609,2.865l-2.443,7.064C22.401,21.528,24,18.952,24,16
		C24,14.608,23.646,13.302,23.021,12.161z"></path>
    </g>
  </g>
  <g id="youtube" data-iconmelon="Flat Social Icons Multicolor:11c49b3191f62f718e363c31f48c0f39">
    <g>
      <path fill="#CD3434" d="M16,32c8.836,0,16-7.164,16-16C32,7.164,24.836,0,16,0C7.163,0,0,7.164,0,16C0,24.836,7.163,32,16,32"></path>
      <path fill="#FFFFFF" d="M19.106,16.008l-5.238,3.077v-6.154L19.106,16.008z M24,18.86V13.14c0,0,0-2.757-2.758-2.757H10.756
		c0,0-2.756,0-2.756,2.757v5.721c0,0,0,2.757,2.756,2.757h10.486C21.242,21.617,24,21.617,24,18.86"></path>
    </g>
  </g>
  <g id="youtube-2" data-iconmelon="Flat Social Icons Multicolor:07205bcfe56469cdbd9d46e6d692523c">
    <g>
      <path fill="#CD3434" d="M16.001,32C24.837,32,32,24.836,32,16c0-8.836-7.163-16-15.999-16C7.165,0,0,7.164,0,16
		C0,24.836,7.165,32,16.001,32"></path>
      <path fill="#FFFFFF" d="M19.274,10.596v3.049c-0.073,0.088-0.161,0.161-0.25,0.217c-0.097,0.057-0.169,0.088-0.234,0.088
		c-0.072,0-0.129-0.024-0.161-0.064c-0.041-0.049-0.057-0.113-0.057-0.209v-3.082h-0.823v3.355c0,0.243,0.049,0.419,0.146,0.541
		c0.096,0.121,0.243,0.178,0.428,0.178c0.162,0,0.314-0.041,0.483-0.121c0.161-0.088,0.315-0.209,0.468-0.379v0.443h0.823v-4.017
		H19.274z M16.765,10.79c-0.218-0.202-0.5-0.299-0.838-0.299c-0.372,0-0.669,0.097-0.896,0.283c-0.218,0.185-0.33,0.427-0.33,0.742
		v2.081c0,0.347,0.111,0.612,0.321,0.814c0.218,0.201,0.508,0.306,0.863,0.306c0.371,0,0.669-0.096,0.878-0.298
		c0.218-0.193,0.323-0.459,0.323-0.806V11.54C17.088,11.233,16.975,10.983,16.765,10.79z M16.25,13.677
		c0,0.104-0.032,0.185-0.097,0.25c-0.064,0.065-0.153,0.097-0.266,0.097c-0.105,0-0.193-0.032-0.25-0.097
		c-0.056-0.056-0.089-0.145-0.089-0.25v-2.194c0-0.088,0.033-0.161,0.097-0.209c0.057-0.057,0.145-0.081,0.242-0.081
		c0.104,0,0.194,0.024,0.266,0.081c0.065,0.048,0.097,0.121,0.097,0.209V13.677z M13.701,9.168l-0.572,2.178h-0.065l-0.597-2.178
		h-0.935l1.105,3.291v2.153h0.927v-2.258l1.073-3.186H13.701z M20.112,18.758c0.048,0.064,0.072,0.177,0.072,0.322v0.371h-0.637
		V19.08c0-0.146,0.016-0.258,0.073-0.322c0.048-0.064,0.129-0.105,0.25-0.105C19.983,18.653,20.064,18.693,20.112,18.758z
		 M17.58,18.741c-0.048-0.064-0.129-0.097-0.226-0.097c-0.048,0-0.104,0.008-0.153,0.032c-0.049,0.024-0.104,0.064-0.153,0.113
		v2.274c0.056,0.056,0.121,0.105,0.177,0.129c0.057,0.024,0.112,0.041,0.169,0.041c0.097,0,0.161-0.024,0.201-0.082
		c0.041-0.048,0.065-0.129,0.065-0.25v-1.886C17.661,18.895,17.636,18.806,17.58,18.741z M17.58,18.741
		c-0.048-0.064-0.129-0.097-0.226-0.097c-0.048,0-0.104,0.008-0.153,0.032c-0.049,0.024-0.104,0.064-0.153,0.113v2.274
		c0.056,0.056,0.121,0.105,0.177,0.129c0.057,0.024,0.112,0.041,0.169,0.041c0.097,0,0.161-0.024,0.201-0.082
		c0.041-0.048,0.065-0.129,0.065-0.25v-1.886C17.661,18.895,17.636,18.806,17.58,18.741z M21.718,15.927H10.282
		C9.032,15.927,8,16.959,8,18.217v2.331c0,1.257,1.032,2.282,2.282,2.282h11.436c1.25,0,2.282-1.025,2.282-2.282v-2.331
		C24,16.959,22.967,15.927,21.718,15.927z M13.363,17.531h-0.855v4.226h-0.823v-4.226h-0.847v-0.717h2.524V17.531z M15.765,21.757
		h-0.733v-0.403c-0.129,0.152-0.274,0.266-0.419,0.339c-0.145,0.081-0.283,0.121-0.42,0.121c-0.168,0-0.298-0.057-0.387-0.169
		c-0.081-0.105-0.121-0.266-0.121-0.484v-3.056h0.726v2.807c0,0.08,0.016,0.145,0.049,0.185c0.024,0.041,0.08,0.056,0.146,0.056
		c0.056,0,0.121-0.024,0.202-0.08c0.088-0.049,0.161-0.113,0.225-0.194v-2.774h0.733V21.757z M18.411,21
		c0,0.258-0.057,0.459-0.169,0.597c-0.112,0.137-0.282,0.209-0.499,0.209c-0.146,0-0.267-0.024-0.38-0.08
		c-0.112-0.057-0.217-0.137-0.313-0.25v0.282h-0.734v-4.943h0.734v1.588c0.097-0.104,0.201-0.193,0.313-0.25
		c0.113-0.056,0.226-0.088,0.339-0.088c0.226,0,0.403,0.08,0.524,0.233c0.122,0.153,0.186,0.379,0.186,0.678V21z M20.943,20.024
		h-1.396v0.685c0,0.193,0.016,0.323,0.065,0.396c0.048,0.081,0.137,0.113,0.25,0.113c0.121,0,0.201-0.032,0.25-0.097
		c0.048-0.056,0.072-0.201,0.072-0.411V20.54h0.759v0.185c0,0.38-0.097,0.662-0.283,0.847c-0.177,0.193-0.452,0.283-0.814,0.283
		c-0.331,0-0.589-0.097-0.775-0.299c-0.185-0.201-0.282-0.476-0.282-0.831v-1.636c0-0.315,0.104-0.573,0.314-0.774
		c0.201-0.194,0.467-0.299,0.798-0.299c0.332,0,0.59,0.097,0.766,0.282c0.178,0.186,0.275,0.443,0.275,0.791V20.024z M17.354,18.645
		c-0.048,0-0.104,0.008-0.153,0.032c-0.049,0.024-0.104,0.064-0.153,0.113v2.274c0.056,0.056,0.121,0.105,0.177,0.129
		c0.057,0.024,0.112,0.041,0.169,0.041c0.097,0,0.161-0.024,0.201-0.082c0.041-0.048,0.065-0.129,0.065-0.25v-1.886
		c0-0.122-0.025-0.21-0.081-0.275C17.532,18.677,17.451,18.645,17.354,18.645z M17.58,18.741c-0.048-0.064-0.129-0.097-0.226-0.097
		c-0.048,0-0.104,0.008-0.153,0.032c-0.049,0.024-0.104,0.064-0.153,0.113v2.274c0.056,0.056,0.121,0.105,0.177,0.129
		c0.057,0.024,0.112,0.041,0.169,0.041c0.097,0,0.161-0.024,0.201-0.082c0.041-0.048,0.065-0.129,0.065-0.25v-1.886
		C17.661,18.895,17.636,18.806,17.58,18.741z M17.58,18.741c-0.048-0.064-0.129-0.097-0.226-0.097c-0.048,0-0.104,0.008-0.153,0.032
		c-0.049,0.024-0.104,0.064-0.153,0.113v2.274c0.056,0.056,0.121,0.105,0.177,0.129c0.057,0.024,0.112,0.041,0.169,0.041
		c0.097,0,0.161-0.024,0.201-0.082c0.041-0.048,0.065-0.129,0.065-0.25v-1.886C17.661,18.895,17.636,18.806,17.58,18.741z"></path>
    </g>
  </g>
  <g id="facebook" data-iconmelon="Flat Social Icons Multicolor:38ae6a9229521dad4b32606188a9dc31">
    <g>
      <path fill="#35679A" d="M16,32c8.836,0,16-7.163,16-16c0-8.836-7.164-16-16-16S0,7.164,0,16C0,24.837,7.163,32,16,32"></path>
      <path fill="#FFFFFF" d="M12.14,13.291h1.654v-1.608c0-0.708,0.018-1.802,0.533-2.479C14.869,8.487,15.614,8,16.895,8
		c2.087,0,2.965,0.298,2.965,0.298l-0.414,2.451c0,0-0.689-0.2-1.332-0.2c-0.644,0-1.22,0.231-1.22,0.874v1.869h2.638l-0.184,2.394
		h-2.454V24h-3.101v-8.315H12.14V13.291z"></path>
    </g>
  </g>
  <g id="twitter" data-iconmelon="Flat Social Icons Multicolor:7bea12547295ed9029c6fcbbd9244435">
    <g>
      <path fill="#28AAE2" d="M16,32c8.837,0,16-7.163,16-16c0-8.836-7.163-16-16-16C7.164,0,0,7.164,0,16C0,24.837,7.164,32,16,32"></path>
      <path fill="#FFFFFF" d="M24.014,11.809c-0.59,0.261-1.224,0.438-1.889,0.518c0.68-0.407,1.202-1.051,1.446-1.818
		c-0.636,0.376-1.339,0.65-2.09,0.797c-0.598-0.639-1.453-1.038-2.399-1.038c-1.815,0-3.287,1.473-3.287,3.288
		c0,0.258,0.027,0.508,0.085,0.749c-2.732-0.137-5.155-1.445-6.778-3.436c-0.283,0.487-0.444,1.052-0.444,1.655
		c0,1.14,0.58,2.146,1.462,2.737c-0.538-0.017-1.045-0.166-1.49-0.411v0.041c0,1.594,1.134,2.922,2.639,3.224
		c-0.275,0.077-0.565,0.116-0.866,0.116c-0.212,0-0.418-0.02-0.618-0.059c0.418,1.306,1.632,2.257,3.071,2.282
		c-1.126,0.883-2.544,1.408-4.084,1.408c-0.265,0-0.527-0.015-0.784-0.045c1.455,0.932,3.184,1.477,5.04,1.477
		c6.05,0,9.355-5.009,9.355-9.355c0-0.143-0.003-0.285-0.009-0.425C23.016,13.047,23.575,12.468,24.014,11.809"></path>
    </g>
  </g>
</svg>